<svg xmlns="http://www.w3.org/2000/svg" width="56.749" height="34.062" viewBox="0 0 56.749 34.062">
  <path id="Logo_-_locação" data-name="Logo - locação" d="M38.545,5.25H30.928a2.836,2.836,0,0,0-1.915.745L20.3,13.975c-.009.009-.018.027-.027.035a3.527,3.527,0,0,0-.186,4.966,3.7,3.7,0,0,0,4.974.239c.009-.009.027-.009.035-.018l7.085-6.491A1.418,1.418,0,0,1,34.094,14.8l-2.314,2.119L44.69,27.4a6.388,6.388,0,0,1,.7.683V10.925L40.549,6.084a2.817,2.817,0,0,0-2-.834Zm9.692,5.693V30.8a2.834,2.834,0,0,0,2.837,2.837h5.675V10.943ZM52.493,30.8a1.419,1.419,0,1,1,1.419-1.419A1.423,1.423,0,0,1,52.493,30.8ZM0,33.625H5.675a2.834,2.834,0,0,0,2.837-2.837V10.943H0Zm4.256-5.666a1.419,1.419,0,1,1-1.419,1.419A1.423,1.423,0,0,1,4.256,27.958Zm38.651,1.649L29.669,18.861,27.009,21.3a6.382,6.382,0,0,1-8.628-9.408L25.635,5.25H18.2a2.832,2.832,0,0,0-2,.834l-4.85,4.841V30.778h1.623L21,38.04a5.674,5.674,0,0,0,7.98-.825L29,37.2l1.587,1.374a3.3,3.3,0,0,0,4.637-.479L38,34.671l.479.39a2.833,2.833,0,0,0,3.99-.417l.842-1.037a2.843,2.843,0,0,0-.408-4Z" transform="translate(0 -5.25)" fill="#fbfbfb"/>
</svg>
