<?xml version="1.0" encoding="UTF-8"?>
<svg version="1.1" viewBox="0 0 2048 379" width="1799" height="333" xmlns="http://www.w3.org/2000/svg">
<path transform="translate(0)" d="m0 0h2048v379h-2048z" fill="#FEFEFE"/>
<path transform="translate(1074,91)" d="m0 0 5 1 4 9 36 116 1 3 56 1 2-4 10-13 11-14 14-18 10-13 7-9 10 3 10 8 3 5-2 10-9 20-8 16 12-14 11-12 13-13 12-9 11-6 4-1h7l10 5 7 7 4 8v11l-6 16-8 15-12 17-1 2 19-7 16-8 18-11 11-9h2l2-4 12-16 11-15 5-8 1-12 2-2h6l9 6 4 7-1 5-7 8-11 12-10 11-9 11-11 14-6 12v3l10-3 16-9 18-13 17-13 14-11 11-9 9-10 11-8h6l5 5 3 9-1 4-7 8-12 13-9 14-2 5v10l5 8 8 4h8l15-4 16-8 12-7 14-10 14-11 8-7 10-18 13-19 14-18 10-11 7-8 8-8 13-10 8-4h7l10 6 4 6 1 3v12l-4 12-9 16-9 11-12 12-10 9-15 10-21 10-6 1-8 20-2 9 1 8 1 4 6 2h10l14-3 15-6 11-8 10-9 7-8 9-10 10-10 5-6v-11l7-9 7-7 16-12 9-5 7-1 9 3 8 7 4 7-1 4-11 1-10 4-11 7-10 8-4 5 1 4 25 9 10 4 24-9 17-5h5l2-5 11-12 9-8 13-8 13-5 9-2h14l9 4 4 3 8 4 4 5-1 6-11 13-11 9-13 8-13 6-17 4h-17l-4-3-3 11v7l3 6 5 3 5 1h11l22-3 26-8 23-11 16-10 14-10 13-11 5-4 1 2-9 11-13 14-7 8-17 17-15 11-19 10-20 6-13 2h-13l-10-5-10-10-8-14-3-9-1-6v-8l4-13 1-2-5 1-15 6-16 8 5 6 2 6-1 5-6 7-18 13-20 12-15 8-7 3h-7l-8-5-5-6-2-5 1-6 7-7 17-11 27-14 8-4-3-2-30-13-5 5-11 13-9 11-12 13-15 15-13 9-9 4-5 1h-7l-10-3-9-6-5-4-9-12-5-13v-18l-9 11-15 16-15 12-16 8-12 3h-7l-10-3-6-4-8-8-7-14-3-15v-9l1-2-10 8-15 13-13 10-17 12-10 5h-7l-8-6-6-9-3-9 2-6v-2l-10 10-5 7-16 9-20 8-19 4-9 1h-9l-9-3-6-4-5-4-6-9v-9l5 1 3 2 10-1 13-5 12-9 11-11 10-15 7-16 1-9-2-3-8 1-12 7-13 11-10 9-11 12-12 14-15 20-18 27-9 15-9 16-11 22-3 9-1 13-3 4h-7l-7-4-4-9-1-12 7-14 24-38 12-20 15-27 11-23 7-19 2-9-13 16-11 14-12 14-9 10-3 3h-64l-5-3-11-33-17-55-7-23-8 24-54 174-7 22-3 3h-5l-3-4-15-105-54-1-4-5-34-78-2-2-21 53-11 28-3 4h-726l-2-2 1-6 2-1h719l3-10 20-51 11-28 2-4 6-1 6 5 18 41 15 35 5 11v2h57l2 3 12 84 1 1 36-116 23-74 7-23z" fill="#224D90"/>
<path transform="translate(1633,96)" d="m0 0h7l10 6 4 6 1 3v12l-4 12-9 16-9 11-12 12-10 9-15 10-21 10-6 1-8 20-2 9 1 8 1 4 6 2h10l14-3 15-6 11-8 10-9 7-8 9-10 10-10 5-6v-11l7-9 7-7 16-12 9-5 7-1 9 3 8 7 4 7-1 4-11 1-10 4-11 7-10 8-4 5 1 4 25 9 10 4 24-9 17-5h5l2-5 11-12 9-8 13-8 13-5 9-2h14l9 4 4 3 8 4 4 5-1 6-11 13-11 9-13 8-13 6-17 4h-17l-4-3-3 11v7l3 6 5 3 5 1h11l22-3 26-8 23-11 16-10 14-10 13-11 5-4 1 2-9 11-13 14-7 8-17 17-15 11-19 10-20 6-13 2h-13l-10-5-10-10-8-14-3-9-1-6v-8l4-13 1-2-5 1-15 6-16 8 5 6 2 6-1 5-6 7-18 13-20 12-15 8-7 3h-7l-8-5-5-6-2-5 1-6 7-7 17-11 27-14 8-4-3-2-30-13-5 5-11 13-9 11-12 13-15 15-13 9-9 4-5 1h-7l-10-3-9-6-5-4-9-12-5-13v-18l-9 11-15 16-15 12-16 8-12 3h-7l-10-3-6-4-8-8-7-14-3-15v-9l2-5h-7l-3 3h-2v2l-11 7-10 8-9 6-8 7-5-1 5-5 10-6 6-8 8-5h2v-2l6-5 6-2 3-2 2-5 7-6 6-4 12-13 9-7 7-2 5 1-4-5 5 1 3 5 2 10-9 10-11 12-9 14-2 5v10l5 8 8 4h8l15-4 16-8 12-7 14-10 14-11 8-7 10-18 13-19 14-18 10-11 7-8 8-8 13-10z" fill="#233A6C"/>
<path transform="translate(884,125)" d="m0 0 6 1 5 6 26 60 11 25v2h57v3l1 3v7l-3 2-2 4-3-9-55-1-4-5-34-78-2-2-21 53-11 28-3 4h-726l-2-2 1-6 2-1h719l3-10 20-51 11-28 2-4z" fill="#225BAA"/>
<path transform="translate(1817,151)" d="m0 0h14l9 4 4 3 8 4 4 5-1 6-11 13-11 9-13 8-13 6-17 4h-17l-4-3-3 11v7l3 6 5 3 5 1h11l22-3 26-8 23-11 16-10 14-10 13-11 5-4 1 2-9 11-13 14-7 8-17 17-15 11-19 10-20 6-13 2h-13l-10-5-10-10-8-14-3-9-1-6v-8l4-13v-3l6-8 11-12 9-8 13-8 13-5z" fill="#233A6C"/>
<path transform="translate(1826,164)" d="m0 0h10l-2 6-9 11-12 10-13 8-11 5-9 2-8-1 7-11 13-13 13-9 11-5z" fill="#FEFEFE"/>
<path transform="translate(1641,111)" d="m0 0h3l-2 5-13 17-14 18-10 13-12 15-9 12-10 8-2-1 12-19 13-18 11-14 9-11 9-10 11-12z" fill="#FEFEFE"/>
<path transform="translate(1709,215)" d="m0 0 5 3-1 4-13 8-11 5-10 2 1-4 10-7 17-10z" fill="#FEFEFE"/>
<path transform="translate(1452,252)" d="m0 0 8 4 11 2 3 1 1 3h-7l-10-3-4-3z" fill="#224E92"/>
<path transform="translate(1436,226)" d="m0 0 4 4 4 11 4 7h-3l-6-10-3-9z" fill="#224A8B"/>
<path transform="translate(997,328)" d="m0 0 7 3h2l1 4-3 3h-5z" fill="#225AA8"/>
<path transform="translate(1402,159)" d="m0 0 5 1 1 5-7 4-2-5 1-3h2z" fill="#24396A"/>
<path transform="translate(1579,194)" d="m0 0 2 1-3 3 2 3-7 2-1-4z" fill="#224A8A"/>
</svg>
