<?xml version="1.0" encoding="UTF-8"?>
<svg xmlns="http://www.w3.org/2000/svg" version="1.1" xmlns:xlink="http://www.w3.org/1999/xlink" viewBox="0 0 200 95">
  <defs>
    <style>
      .cls-1, .cls-2 {
        fill: #231f20;
      }

      .cls-1, .cls-3 {
        fill-rule: evenodd;
      }

      .cls-4 {
        fill: url(#Gradiente_sem_nome_25);
      }

      .cls-3 {
        fill: #0067a5;
      }
    </style>
    <linearGradient id="Gradiente_sem_nome_25" data-name="Gradiente sem nome 25" x1="11.88" y1="81.12" x2="186.6" y2="81.12" gradientUnits="userSpaceOnUse">
      <stop offset="0" stop-color="#007ee9"/>
      <stop offset="0" stop-color="#007de8"/>
      <stop offset=".49" stop-color="#12539c"/>
      <stop offset=".83" stop-color="#1d396c"/>
      <stop offset="1" stop-color="#222f5a"/>
    </linearGradient>
  </defs>
  <!-- Generator: Adobe Illustrator 28.7.1, SVG Export Plug-In . SVG Version: 1.2.0 Build 142)  -->
  <g>
    <g id="Camada_1">
      <g>
        <g>
          <path class="cls-1" d="M124.12,59.22c9.42,0,14.75-5.46,14.75-14.84s-5.34-14.84-14.75-14.84-14.75,5.46-14.75,14.84,5.34,14.84,14.75,14.84M130.6,44.5c0,4.23-1.11,9.18-6.48,9.18s-6.48-4.95-6.48-9.18c0-4.47,1.11-9.42,6.48-9.42s6.48,4.95,6.48,9.42Z"/>
          <polygon class="cls-1" points="141.73 58.62 141.73 30.13 154.23 30.13 158.88 49.41 158.97 49.41 163.47 30.13 175.73 30.13 175.73 58.62 168.83 58.62 168.83 34.78 168.74 34.72 162.09 58.62 154.98 58.62 148.71 34.51 148.62 34.6 148.62 58.62 141.73 58.62"/>
          <rect class="cls-2" x="179.99" y="30.13" width="7.89" height="28.49"/>
          <path class="cls-3" d="M12.24,30.13C12.24,14.42,24.99,1.67,40.7,1.67s28.49,12.74,28.49,28.46c0,11.87-7.26,22.04-17.57,26.33l-10.91-10.91v5.82c-11.69,0-21.2-9.51-21.2-21.23s9.51-21.2,21.2-21.2,21.23,9.51,21.23,21.2c0,7.59-3.96,14.21-9.93,17.99l-11.3-11.3v-6.69l10.91,10.91c2.79-2.79,4.5-6.66,4.5-10.91,0-8.52-6.9-15.41-15.41-15.41s-15.41,6.9-15.41,15.41,6.9,15.41,15.41,15.41v-6.66l10.91,10.89.15.15c6.93-3.87,11.6-11.28,11.6-19.79,0-12.5-10.14-22.67-22.67-22.67s-22.67,10.17-22.67,22.67,10.17,22.67,22.67,22.67v5.82c-15.71,0-28.46-12.74-28.46-28.49"/>
          <path class="cls-1" d="M91.35,47.73h2.97c4.02,0,4.17,1.41,4.5,4.86.18,2.01.42,4.05.87,6.03h8.55c-.66-2.28-1.11-4.53-1.29-6.9-.51-4.44-1.47-6.99-6.51-7.11v-.15c3.96-.48,7.26-2.73,7.26-6.99,0-6.03-6.24-7.35-11.07-7.35h-13.16v28.49h7.89v-10.89ZM91.35,42.22v-6.57h3.09c2.52,0,4.95.36,4.95,3.27s-2.43,3.3-4.95,3.3h-3.09Z"/>
        </g>
        <path class="cls-4" d="M186.55,77.42c-.05,0-.11.03-.14.05-.63.63-5.9,5.58-12.3,5.58-1.17,0-1.66-.54-1.66-1.33,0-.44.16-.95.44-1.52.16.22.46.38.95.38,4.35,0,7.51-3.78,7.51-4.35,0-.46-.71-.92-1.36-1.09-.33-.44-1.03-.71-1.52-.71-2.86,0-5.37,1.93-6.56,3.9-1.12.18-2.78.76-4.52,1.49-1.55-.87-3.54-1.06-3.54-1.6,0-.65,2.88-2.61,3.94-2.61.14,0,.33.05.49.05.14,0,.24-.03.24-.22,0-.49-1.01-1.82-2.23-1.82-.9,0-4.35,2.64-4.35,3.65,0,.24.04.45.11.66-.12.11-.25.3-.5.59-.23.27-.27.27-.7.7-1.43,1.43-2.12,2.52-3.49,3.49,0,0-1.78,1.26-3.97,1.23-.28,0-.57-.06-.8-.26-.31-.27-.37-.69-.37-.94,0-.76.41-1.82,1.06-3.05.32-.1.77-.25,1.29-.47,4.5-1.96,8.07-6.92,6.9-9.08-.43-.8-1.42-1.06-1.58-1.06-1.75,0-6.41,5.4-8.42,9.41-1.65,1.46-5.61,4.68-8.31,4.68-.65,0-1.66-.84-1.66-1.69s.65-2.01,2.77-4.16c.3-.3.38-.46.38-.57,0-.16-.16-.22-.16-.41,0-.76-.57-1.11-.95-1.11-.24,0-1.31.68-2.2,1.82-2.39,1.96-7.05,5.63-8.24,5.63-.16,0-.24-.08-.24-.22,0-1.09,4.52-5.82,5.11-6.42.22-.25.3-.46.3-.65,0-.68-1.01-1.41-1.6-1.41-.24,0-.44.14-.44.43,0,.19,0,.49.03.82-.47.86-1.85,2.65-3.02,4.19-.85.75-3.39,2.73-6.69,3.67,1.58-1.85,2.88-4.38,2.88-5.66,0-.98-1.31-2.37-2.42-2.37-1.71,0-4.46,2.83-6.8,5.79,1.2-2.26,2.12-4.16,2.12-4.81,0-.49-1.36-1.63-2.12-1.63-.16,0-.23.07-.25.18v-.02c-1.75,2.26-3.51,4.52-5.26,6.78h-5.37l-3.86-12.41c-.06-.2-.27-.32-.5-.31-.22,0-.43.11-.49.31l-6.57,21.14-1.18-8.39s.02-.06.02-.1v-.02c0-.24-.2-.44-.44-.44h-5.33l-3.82-8.79c-.04-.1-.15-.17-.28-.21-.06-.08-.14-.16-.26-.19-.27-.08-.56.04-.65.28l-3.48,8.91H12.32c-.24,0-.44.2-.44.44v.02c0,.24.2.44.44.44h70.6c.23,0,.42-.18.44-.41.02-.03.05-.06.06-.1l3.17-8.1,3.57,8.21s.05.08.09.11c.06.16.22.28.41.28h5.12l1.46,10.34s.02.04.04.06c.04.15.16.28.34.33h.05c.26.07.53-.06.6-.29l6.74-21.71,3.41,10.99c.06.2.27.32.49.31.03,0,.05.02.08.02h6.11c.05,0,.1-.01.14-.03,0,0,0,0,.01,0,.01,0,.05-.04.08-.06,0,0,.01,0,.02-.01.42-.36,2.26-2.57,4.63-5.62-.75,4.88-7.68,13.9-7.68,15.01,0,2.15,1.09,2.26,1.52,2.26h.22c.3,0,.41-.11.41-1.44,0-.52.84-2.2,1.96-4.3h.03c3.62-6.47,8.84-11.94,10.77-11.94.24,0,.38.22.38.54,0,1.63-2.77,6.34-6.28,6.39-.3-.22-.54-.38-.68-.38s-.19.14-.19.52c0,.46,1.12,2.29,2.94,2.29,2.42,0,5.03-.98,6.77-2.18.41-.3.38-.65.73-.95.42-.35.79-.69,1.13-1.01-.32.47-.53.82-.53.95,0,1.06,1.2,2.58,1.96,2.58.9,0,4.16-2.56,6.69-4.84-.03.22-.05.41-.05.63,0,2.58,1.52,4.81,3.56,4.81,2.59,0,4.98-2.34,7.18-5.14-.16.49-.25.93-.25,1.31,0,1.95,1.96,4.23,3.81,4.43,2.35.26,4.96-2.93,7.86-6.47,0-.01.16-.2.45-.55.47.3,2.24.96,3.49,1.51-3.1,1.44-6.07,3.21-6.07,3.89,0,.95,1.01,1.85,1.85,1.85s6.85-3.56,6.85-4.46c0-.22-.16-.84-.44-1.12l-.35-.3c1.36-.71,2.78-1.34,3.73-1.62-.37.68-.57,1.35-.57,1.95,0,2.53,2.23,4.76,3.43,4.76,6.36,0,9.63-5.25,11.26-6.88.57-.57.73-.84.73-.95,0-.05-.03-.05-.05-.05ZM179.39,75.68l-.03.14c0,.84-3.43,4-5.63,4-.25,0-.44-.03-.6-.08,1.17-1.96,3.67-4.05,6.26-4.05ZM160.51,70.54s.05,0,.07.02c0,0,.04.03.04.11,0,.12-3.45,4.54-6.03,7.83-.35.24-.69.49-1.04.73,2.2-3.86,6.42-8.7,6.96-8.7ZM119.96,74.67v-.03s0,.04,0,.06v-.03ZM119.97,74.86v-.08c0,.09.01.2.03.31l-.03-.23ZM120.01,76.02l.02-.51s0,.03,0,.04c0,.15,0,.31-.03.47ZM164.16,82.86c-.11,0-.16-.05-.16-.11,0-.24,1.36-1.12,3.02-2.01.27.16.46.3.46.38,0,.41-2.64,1.74-3.32,1.74Z"/>
      </g>
    </g>
  </g>
</svg>