<svg id="Logo_-_fábrica" data-name="Logo - fábrica" xmlns="http://www.w3.org/2000/svg" width="53.217" height="53.217" viewBox="0 0 53.217 53.217">
  <g id="Grupo_1367" data-name="Grupo 1367" transform="translate(35.547)">
    <g id="Grupo_1366" data-name="Grupo 1366">
      <path id="Caminho_767" data-name="Caminho 767" d="M1.559,0H16.111A1.559,1.559,0,0,1,17.67,1.559V5.2H0V1.559A1.559,1.559,0,0,1,1.559,0Z" fill="#fbfbfb"/>
    </g>
  </g>
  <g id="Grupo_1369" data-name="Grupo 1369" transform="translate(0 8.315)">
    <g id="Grupo_1368" data-name="Grupo 1368">
      <path id="Caminho_768" data-name="Caminho 768" d="M.783,86.547a1.559,1.559,0,0,1,1.563.007l15.427,9.022V87.9a1.559,1.559,0,0,1,2.346-1.346l15.427,9.022V80h17.67v43.343a1.559,1.559,0,0,1-1.559,1.559H1.559A1.559,1.559,0,0,1,0,123.343V87.9A1.559,1.559,0,0,1,.783,86.547Zm28.528,27.389A1.559,1.559,0,0,0,30.87,115.5h6.236a1.559,1.559,0,0,0,1.559-1.559V107.7a1.559,1.559,0,0,0-1.559-1.559H30.87a1.559,1.559,0,0,0-1.559,1.559Zm-17.774,0A1.559,1.559,0,0,0,13.1,115.5h6.236a1.559,1.559,0,0,0,1.559-1.559V107.7a1.559,1.559,0,0,0-1.559-1.559H13.1a1.559,1.559,0,0,0-1.559,1.559Z" transform="translate(0 -80)" fill="#fbfbfb"/>
    </g>
  </g>
</svg>
