<?xml version="1.0" encoding="UTF-8"?>
<svg id="Camada_2" data-name="Camada 2" xmlns="http://www.w3.org/2000/svg" xmlns:xlink="http://www.w3.org/1999/xlink" viewBox="0 0 648.33 99.46">
  <defs>
    <style>
      .cls-1 {
        fill: #0067a6;
      }

      .cls-1, .cls-2, .cls-3, .cls-4 {
        stroke-width: 0px;
      }

      .cls-1, .cls-3, .cls-4 {
        fill-rule: evenodd;
      }

      .cls-2, .cls-4 {
        fill: #231f20;
      }

      .cls-3 {
        fill: url(#GradientFill_1);
      }
    </style>
    <linearGradient id="GradientFill_1" data-name="GradientFill 1" x1="452.69" y1="53.95" x2="462.82" y2="85.08" gradientUnits="userSpaceOnUse">
      <stop offset="0" stop-color="#0067a6"/>
      <stop offset="1" stop-color="#83cff4"/>
    </linearGradient>
  </defs>
  <g id="Camada_1-2" data-name="Camada 1">
    <g>
      <polygon class="cls-1" points="602.46 49.55 648.33 49.55 648.33 61.61 632.92 61.61 632.92 98.34 617.86 98.34 617.86 61.61 602.46 61.61 602.46 49.55"/>
      <path class="cls-1" d="M585.37,78.38l13.22,3.99c-.89,3.7-2.28,6.8-4.2,9.28-1.91,2.49-4.27,4.36-7.11,5.62-2.83,1.26-6.43,1.9-10.8,1.9-5.32,0-9.64-.77-13.02-2.31-3.36-1.54-6.26-4.26-8.7-8.13-2.44-3.87-3.67-8.85-3.67-14.89,0-8.06,2.15-14.27,6.44-18.6,4.3-4.33,10.38-6.5,18.24-6.5,6.14,0,10.98,1.24,14.5,3.73,3.51,2.49,6.13,6.3,7.84,11.46l-13.29,2.94c-.47-1.48-.95-2.56-1.47-3.24-.85-1.15-1.89-2.03-3.1-2.65-1.23-.62-2.59-.93-4.1-.93-3.43,0-6.05,1.37-7.87,4.11-1.37,2.03-2.07,5.24-2.07,9.59,0,5.41.82,9.1,2.46,11.11,1.65,2,3.95,3,6.93,3s5.07-.81,6.54-2.43c1.48-1.61,2.54-3.96,3.21-7.04Z"/>
      <polygon class="cls-1" points="506.2 49.55 546.54 49.55 546.54 59.98 521.33 59.98 521.33 67.75 544.7 67.75 544.7 77.69 521.33 77.69 521.33 87.3 547.29 87.3 547.29 98.34 506.2 98.34 506.2 49.55"/>
      <polygon class="cls-3" points="466.27 49.66 484.49 76.49 484.49 49.55 498.73 49.55 498.73 98.34 484.49 98.34 466.3 71.55 466.27 65.5 466.27 98.34 452.03 98.34 433.83 71.55 433.83 98.34 419.66 98.34 419.66 49.55 433.73 49.55 452.03 76.49 452.03 49.55 466.19 49.55 466.27 49.55 466.27 49.66"/>
      <path class="cls-1" d="M363.4,73.98c0-7.96,2.22-14.16,6.66-18.59,4.44-4.44,10.62-6.66,18.55-6.66s14.38,2.18,18.77,6.53c4.39,4.36,6.59,10.47,6.59,18.32,0,5.7-.95,10.37-2.87,14.02-1.92,3.65-4.7,6.49-8.33,8.52-3.63,2.03-8.16,3.04-13.57,3.04s-10.05-.88-13.66-2.62c-3.6-1.76-6.53-4.53-8.77-8.33-2.24-3.78-3.36-8.53-3.36-14.23h0ZM378.46,74.01c0,4.92.92,8.46,2.75,10.61,1.84,2.15,4.34,3.23,7.5,3.23s5.76-1.06,7.53-3.16c1.78-2.11,2.67-5.88,2.67-11.35,0-4.59-.93-7.94-2.78-10.05-1.86-2.12-4.37-3.18-7.55-3.18s-5.5,1.08-7.34,3.23c-1.85,2.15-2.77,5.71-2.77,10.68Z"/>
      <path class="cls-1" d="M347.35,78.38l13.22,3.99c-.89,3.7-2.28,6.8-4.2,9.28-1.91,2.49-4.27,4.36-7.11,5.62-2.83,1.26-6.43,1.9-10.8,1.9-5.32,0-9.64-.77-13.02-2.31-3.36-1.54-6.26-4.26-8.7-8.13-2.44-3.87-3.67-8.85-3.67-14.89,0-8.06,2.15-14.27,6.44-18.6,4.3-4.33,10.38-6.5,18.24-6.5,6.14,0,10.98,1.24,14.5,3.73,3.51,2.49,6.13,6.3,7.84,11.46l-13.29,2.94c-.47-1.48-.95-2.56-1.47-3.24-.85-1.15-1.89-2.03-3.1-2.65-1.23-.62-2.59-.93-4.1-.93-3.43,0-6.05,1.37-7.87,4.11-1.37,2.03-2.07,5.24-2.07,9.59,0,5.41.82,9.1,2.46,11.11,1.65,2,3.95,3,6.93,3s5.07-.81,6.54-2.43c1.48-1.61,2.54-3.96,3.21-7.04Z"/>
    </g>
    <g>
      <path class="cls-4" d="M204.56,74.01c0,7.31-1.92,15.86-11.19,15.86s-11.19-8.55-11.19-15.86c0-7.72,1.92-16.27,11.19-16.27s11.19,8.55,11.19,16.27h0ZM193.37,99.46c16.27,0,25.5-9.43,25.5-25.65s-9.23-25.65-25.5-25.65-25.5,9.43-25.5,25.65,9.23,25.65,25.5,25.65Z"/>
      <polygon class="cls-4" points="223.79 98.42 223.79 49.18 245.4 49.18 253.44 82.51 253.59 82.51 261.37 49.18 282.56 49.18 282.56 98.42 270.64 98.42 270.64 57.22 270.49 57.11 258.98 98.42 246.7 98.42 235.87 56.75 235.71 56.91 235.71 98.42 223.79 98.42"/>
      <rect class="cls-2" x="289.92" y="49.18" width="13.63" height="49.23"/>
      <path class="cls-1" d="M0,49.18C0,22.03,22.03,0,49.18,0s49.24,22.03,49.24,49.18c0,20.52-12.54,38.09-30.37,45.5l-18.87-18.87v10.05c-20.21,0-36.64-16.43-36.64-36.69S28.97,12.54,49.18,12.54s36.69,16.43,36.69,36.64c0,13.11-6.84,24.57-17.15,31.1l-19.54-19.54v-11.56l18.87,18.86c4.82-4.82,7.77-11.51,7.77-18.86,0-14.72-11.92-26.64-26.64-26.64s-26.64,11.92-26.64,26.64,11.92,26.64,26.64,26.64v-11.51l18.87,18.81.26.26c11.97-6.69,20.06-19.49,20.06-34.21,0-21.61-17.52-39.18-39.18-39.18S10,27.57,10,49.18s17.57,39.18,39.18,39.18v10.05C22.03,98.42,0,76.39,0,49.18Z"/>
      <path class="cls-4" d="M136.72,70.07v-11.35h5.34c4.35,0,8.55.62,8.55,5.65s-4.2,5.7-8.55,5.7h-5.34ZM136.72,79.61h5.13c6.94,0,7.2,2.44,7.77,8.4.31,3.47.73,7,1.5,10.42h14.77c-1.14-3.94-1.92-7.83-2.23-11.92-.88-7.67-2.54-12.08-11.25-12.28v-.26c6.84-.83,12.54-4.72,12.54-12.08,0-10.42-10.78-12.7-19.12-12.7h-22.75v49.23h13.63v-18.81Z"/>
    </g>
  </g>
</svg>