<svg xmlns="http://www.w3.org/2000/svg" width="53.071" height="53.065" viewBox="0 0 53.071 53.065">
  <g id="Logo_-_Instalador" data-name="Logo - Instalador" transform="translate(-148.13 -27.469)">
    <g id="settings" transform="translate(148.131 27.438)">
      <g id="Grupo_1361" data-name="Grupo 1361" transform="translate(0.006 0.031)">
        <g id="Grupo_1360" data-name="Grupo 1360" transform="translate(0 0)">
          <g id="Grupo_1359" data-name="Grupo 1359">
            <path id="Caminho_764" data-name="Caminho 764" d="M123.583,282.021h0C123.616,281.989,123.614,281.991,123.583,282.021Z" transform="translate(-110.78 -252.77)" fill="#fbfbfb"/>
            <path id="Caminho_765" data-name="Caminho 765" d="M51.952,21.947l-2.639-.635a23.112,23.112,0,0,0-2.944-7.1l1.337-2.245a1.555,1.555,0,0,0-.237-1.895L43.087,5.69a1.557,1.557,0,0,0-1.895-.237L38.947,6.79a23.112,23.112,0,0,0-7.1-2.944l-.635-2.639A1.554,1.554,0,0,0,29.706.031H23.487A1.554,1.554,0,0,0,21.98,1.208l-.635,2.639a23.112,23.112,0,0,0-7.1,2.944L12,5.453a1.555,1.555,0,0,0-1.895.237L5.723,10.073a1.555,1.555,0,0,0-.237,1.895l1.337,2.245a23.112,23.112,0,0,0-2.944,7.1l-2.639.635A1.554,1.554,0,0,0,.064,23.454v6.218A1.553,1.553,0,0,0,1.242,31.18l2.639.635a22.681,22.681,0,0,0,1.7,4.784c1.142-1.146,6.876-6.905,7.288-7.317-.02-.1-.242-2.1-.248-2.484a13.977,13.977,0,1,1,27.952-.186A13.824,13.824,0,0,1,27.7,40.455a12.294,12.294,0,0,1-3.826-.161l-7.3,7.3a22.685,22.685,0,0,0,4.766,1.688l.635,2.641A1.554,1.554,0,0,0,23.487,53.1h6.218a1.554,1.554,0,0,0,1.508-1.177l.635-2.639a23.112,23.112,0,0,0,7.1-2.944l2.245,1.337a1.557,1.557,0,0,0,1.895-.237l4.383-4.383a1.555,1.555,0,0,0,.237-1.895l-1.337-2.245a23.067,23.067,0,0,0,2.944-7.1l2.638-.633a1.553,1.553,0,0,0,1.178-1.508V23.454A1.554,1.554,0,0,0,51.952,21.947Z" transform="translate(-0.064 -0.031)" fill="#fbfbfb"/>
          </g>
        </g>
      </g>
      <g id="Grupo_1363" data-name="Grupo 1363" transform="translate(-0.001 15.678)">
        <g id="Grupo_1362" data-name="Grupo 1362" transform="translate(0)">
          <path id="Caminho_766" data-name="Caminho 766" d="M37.058,159.029a1.535,1.535,0,0,0-2.575-.706l-3.548,3.548a3.109,3.109,0,1,1-4.4-4.4l3.549-3.549a1.537,1.537,0,0,0-.707-2.576,10.892,10.892,0,0,0-13.546,8.507,11.007,11.007,0,0,0,.443,5.661L1.363,180.433a4.676,4.676,0,1,0,6.613,6.613l14.915-14.915a11.377,11.377,0,0,0,7.659-.085A10.94,10.94,0,0,0,37.058,159.029Z" transform="translate(0.001 -150.986)" fill="#fbfbfb"/>
        </g>
      </g>
    </g>
  </g>
</svg>
